<?xml version="1.0" encoding="utf-8" ?>
<svg baseProfile="full" height="200mm" version="1.1" viewBox="0,0,200,200" width="200mm" xmlns="http://www.w3.org/2000/svg" xmlns:ev="http://www.w3.org/2001/xml-events" xmlns:xlink="http://www.w3.org/1999/xlink"><defs /><rect fill="#1a1a1a" height="200" width="200" x="0" y="0" /><text alignment-baseline="middle" fill="#e1ed5e" style="dominant-baseline: central; font-size:9.0px; font-family:Arial;" text-anchor="middle" x="100.0" y="100.0">2023</text><line stroke="#e1ed5e" stroke-width="0.3" x1="100.0" x2="100.0" y1="15.0" y2="10.0" /><path d="M 100.0 14.0 a86.0,86.0 0 0,1 42.46469731375804,11.215312516191453" fill="none" id="id13" stroke="none" /><text fill="#e1ed5e" style="font-size:6.75px; font-family:Arial;" text-anchor="middle"><textPath startOffset="22.20632615414155" xlink:href="#id13">January</textPath></text><path d="M 103.59715602781102 79.31037775812273 l 4.431901259624261 -25.49079388439111 a46.873196973539436,46.873196973539436 0 0,0 0.7937303587283507,0.14504914966083238 l -4.870026739455512 25.410729253379536" fill="#ff5608" stroke="none" /><line stroke="#e1ed5e" stroke-width="0.3" x1="143.23703022742887" x2="145.7803849466894" y1="26.81831364943548" y2="22.513508569990506" /><path d="M 143.74570117128098 25.957352633546492 a86.0,86.0 0 0,1 28.547481713284135,27.462654790039103" fill="none" id="id14" stroke="none" /><text fill="#e1ed5e" style="font-size:6.75px; font-family:Arial;" text-anchor="middle"><textPath startOffset="19.985693538727396" xlink:href="#id14">February</textPath></text><path d="M 113.6212207817346 84.01681056812373 l 16.453599832243754 -19.306713191792927 a46.36671286764926,46.36671286764926 0 0,0 0.60300175335809,0.522917178434187 l -16.78349538424861 19.020631019939067" fill="#ff4c07" stroke="none" /><path d="M 114.94478906791727 85.2469230424477 l 20.202795169230683 -19.943633231276067 a49.3884032505097,49.3884032505097 0 0,0 0.5920393360378486,0.610148577513873 l -20.54309876897164 19.592920458212078" fill="#ff8a0c" stroke="none" /><path d="M 116.82858285166822 87.43820079747576 l 22.283752490449004 -16.6338441407157 a48.807380242540184,48.807380242540184 0 0,0 0.49676009252831366,0.6775802079383992 l -22.566775195490944 16.247801489105807" fill="#ff7e0b" stroke="none" /><path d="M 117.04232023915458 87.72973835380427 l 24.393556653702717 -17.563061744055073 a51.0583889129623,51.0583889129623 0 0,0 0.5073924485371701,0.7176706353742597 l -24.69226172204377 17.140564608349017" fill="#ffab0f" stroke="none" /><path d="M 117.2510076193507 88.02491185347247 l 20.92331289947999 -14.5242829762358 a46.47037138840576,46.47037138840576 0 0,0 0.4504871755222432,0.6610343428810912 l -21.170224540670965 14.161970610084301" fill="#ff4e07" stroke="none" /><path d="M 117.65298651832404 88.62581576622439 l 28.250984327435116 -18.202693362520133 a54.607382538944016,54.607382538944016 0 0,0 0.5023161594173544,0.7945435327116441 l -28.560128083098427 17.713702182094284" fill="#ffef16" stroke="none" /><line stroke="#e1ed5e" stroke-width="0.3" x1="172.23445277983987" x2="176.4835382374775" y1="55.19839476539836" y2="52.563006222186495" /><path d="M 173.08426987136738 54.67131705675599 a86.0,86.0 0 0,1 12.851231095245387,41.99856678651699" fill="none" id="id15" stroke="none" /><text fill="#e1ed5e" style="font-size:6.75px; font-family:Arial;" text-anchor="middle"><textPath startOffset="22.20632615414155" xlink:href="#id15">March</textPath></text><path d="M 118.21658344932153 89.55222093294921 l 20.666701064267958 -11.852997976538626 a44.824485176214054,44.824485176214054 0 0,0 0.37811023961747287,0.6726159256051635 l -20.867668945177865 11.495498540998668" fill="#ff2b04" stroke="none" /><path d="M 120.73433829027371 96.67025291283417 l 21.572847164738487 -3.4644040240414813 a42.84925239075608,42.84925239075608 0 0,0 0.1106818767966908,0.7292552779900914 l -21.62928493497448 3.0925496336593077" fill="#ff0000" stroke="none" /><path d="M 120.87857604477298 97.74499172005257 l 23.813767183215685 -2.5720260835669273 a44.95226138866535,44.95226138866535 0 0,0 0.0764678087565189,0.7700203986511029 l -23.85451211765443 2.16173015421139" fill="#ff2e04" stroke="none" /><path d="M 120.94382443527127 98.46500227214037 l 25.77068981240913 -1.8887644150036087 a46.83981200440111,46.83981200440111 0 0,0 0.05201317778128179,0.8046208386990271 l -25.799383581194828 1.4448845120515463" fill="#ff5607" stroke="none" /><path d="M 120.98425023603335 99.18683210126433 l 25.88935534134804 -1.00324731385421 a46.90878664012157,46.90878664012157 0 0,0 0.024321771507266596,0.8071211886260619 l -25.90278880731095 0.557455977803149" fill="#ff5708" stroke="none" /><line stroke="#e1ed5e" stroke-width="0.3" x1="184.98032266829074" x2="189.97916517819016" y1="98.17113171792111" y2="98.06355123074" /><path d="M 185.9800911702706 98.14961562048488 a86.0,86.0 0 0,1 -9.607161424134198,41.387399972396054" fill="none" id="id16" stroke="none" /><text fill="#e1ed5e" style="font-size:6.75px; font-family:Arial;" text-anchor="middle"><textPath startOffset="21.466115282336823" xlink:href="#id16">April</textPath></text><path d="M 120.9764740272857 100.99374915477107 l 26.493599217998558 1.2551199880152668 a47.52331287204238,47.52331287204238 0 0,0 -0.04574378909798223,0.8167860832838544 l -26.468069078013045 -1.7109777876345444" fill="#ff6409" stroke="none" /><path d="M 120.92983693683757 101.71520430193887 l 32.46461440280301 2.6604816106554874 a53.573445484371476,53.573445484371476 0 0,0 -0.08323120417884355,0.9184494025691559 l -32.41400860234709 -3.218912401773214" fill="#ffdb14" stroke="none" /><path d="M 120.8583938346157 102.4346265915055 l 31.667640423226192 3.6962999201151927 a52.88262980173049,52.88262980173049 0 0,0 -0.11331612038740586,0.9032409722130013 l -31.599322793591938 -4.240858646615589" fill="#ffce13" stroke="none" /><path d="M 120.70491114924044 103.5080841355445 l 31.567343764429083 5.34853287044102 a53.0172452938698,53.0172452938698 0 0,0 -0.16019680148914014,0.8984687375174183 l -31.470600520600755 -5.891120358691657" fill="#ffd113" stroke="none" /><path d="M 120.32669344350535 105.2749913415812 l 25.237962202625116 6.5495173855016775 a47.07395087293298,47.07395087293298 0 0,0 -0.21029037550392943,0.7825687171899867 l -25.121483750779408 -6.982977035867212" fill="#ff5a08" stroke="none" /><path d="M 119.9155931802556 106.66101706037122 l 30.840296207783844 10.314919436625768 a53.51955462745341,53.51955462745341 0 0,0 -0.2997328737153887,0.8711640328650917 l -30.658172503125222 -10.84425617258016" fill="#ffda14" stroke="none" /><path d="M 119.26925614724726 108.34839909993367 l 29.9153120974356 12.960799455880595 a53.602273240105994,53.602273240105994 0 0,0 -0.3740900486670406,0.8434743028555485 l -29.687780964037287 -13.473822095228831" fill="#ffdc14" stroke="none" /><path d="M 118.97047184881838 109.00673069616215 l 29.63715408919709 14.071018771137513 a53.80784162002304,53.80784162002304 0 0,0 -0.40444726515770824,0.8332811595477523 l -29.390553567424668 -14.579088886650542" fill="#ffe015" stroke="none" /><path d="M 118.81262510543309 109.33194174019688 l 26.676094319097114 13.232590169987352 a50.777767725741484,50.777767725741484 0 0,0 -0.39515096890593,0.7796703496335333 l -26.444364680404917 -13.68981473132358" fill="#ffa50f" stroke="none" /><line stroke="#e1ed5e" stroke-width="0.3" x1="174.80103733775053" x2="179.2010983576182" y1="140.37084112569926" y2="142.7455964860345" /><path d="M 175.68104954172406 140.8457921977663 a86.0,86.0 0 0,1 -30.038265399797805,32.042727171017184" fill="none" id="id17" stroke="none" /><text fill="#e1ed5e" style="font-size:6.75px; font-family:Arial;" text-anchor="middle"><textPath startOffset="22.206326154141568" xlink:href="#id17">May</textPath></text><path d="M 118.30583269289576 110.29060199501025 l 38.47157041847219 21.626747383807817 a65.13363720413832,65.13363720413832 0 0,0 -0.5578168873571135,0.9726007616324894 l -38.093601534962694 -22.285767991298624" fill="#5dff2a" stroke="none" /><path d="M 117.14729908036423 112.12312394758627 l 29.03053094807854 20.524557441866204 a56.55318811740814,56.55318811740814 0 0,0 -0.5688179112371685,0.7900383284879979 l -28.672933244465767 -21.021229375805333" fill="#ecff1a" stroke="none" /><path d="M 116.93607887273984 112.41649034213515 l 26.080094725450532 19.120319804470746 a53.33818130807156,53.33818130807156 0 0,0 -0.5492276553735672,0.7357801978735872 l -25.747105803381874 -19.566412881853648" fill="#ffd714" stroke="none" /><path d="M 116.27256486870786 113.27417163493432 l 26.888112446904067 21.9336916115769 a55.699530525197545,55.699530525197545 0 0,0 -0.612440209634276,0.7377236856967435 l -26.506576237376247 -22.393276554387416" fill="#fbff18" stroke="none" /><path d="M 114.55890576462653 115.13401014063108 l 22.730800734378384 23.628710452579224 a53.78727283074705,53.78727283074705 0 0,0 -0.6727613875467694,0.6361378835740343 l -22.320703512440808 -24.01648297289918" fill="#ffdf14" stroke="none" /><path d="M 114.29624159901734 115.38237550388516 l 23.28003301519537 25.048695987845743 a55.1964487612399,55.1964487612399 0 0,0 -0.7015217639144804,0.6408234984153967 l -22.845411701814026 -25.44571225284772" fill="#fff917" stroke="none" /><path d="M 113.48314897796784 116.09983520530334 l 21.7942968655934 26.023934655389212 a54.944610040676295,54.944610040676295 0 0,0 -0.7303181875150498,0.6010021485158206 l -21.34310854953366 -26.39523192276221" fill="#fff517" stroke="none" /><path d="M 111.7513745106137 117.40417183066458 l 16.075815705152067 23.80881135205615 a49.72788451285287,49.72788451285287 0 0,0 -0.7135366562790315,0.4728931878170998 l -15.663604350133072 -24.08200256096457" fill="#ff910d" stroke="none" /><path d="M 111.1453310114006 117.79835938074945 l 19.073897575784045 30.45975785718259 a56.93898186440035,56.93898186440035 0 0,0 -0.8351614642339219,0.5130243836092554 l -18.546756911617816 -30.783570707620225" fill="#e5ff1a" stroke="none" /><line stroke="#e1ed5e" stroke-width="0.3" x1="143.8653032363475" x2="146.44561519142675" y1="172.8068346515853" y2="177.08958963109032" /><path d="M 144.38136562736335 173.6633856474863 a86.0,86.0 0 0,1 -40.68145358897372,12.25698825130547" fill="none" id="id18" stroke="none" /><text fill="#e1ed5e" style="font-size:6.75px; font-family:Arial;" text-anchor="middle"><textPath startOffset="21.466115282336833" xlink:href="#id18">June</textPath></text><path d="M 110.5260780823613 118.17145234162733 l 19.050827196256662 32.88795653582095 a59.00725854312147,59.00725854312147 0 0,0 -0.8832859277918974,0.501552802146907 l -18.481892501543566 -33.21101250376248" fill="#c1ff1e" stroke="none" /><path d="M 109.89434966115114 118.52300852407294 l 18.2031182456323 34.07768332186942 a59.6347254998672,59.6347254998672 0 0,0 -0.9095973858544115,0.4758583620516696 l -17.613829957251394 -34.38597110286581" fill="#b6ff1f" stroke="none" /><path d="M 108.92500713936063 119.00905698771935 l 16.33328168828145 34.78767888484369 a59.43122028902739,59.43122028902739 0 0,0 -0.9297646626448653,0.42680935454329616 l -15.732049029869165 -35.06367530972107" fill="#b9ff1f" stroke="none" /><path d="M 108.2653958097858 119.30500536409082 l 15.27997097412978 35.68854152991517 a59.82202351118149,59.82202351118149 0 0,0 -0.9501120091234728,0.3971468968699772 l -14.663387505508846 -35.94627346980512" fill="#b3ff20" stroke="none" /><path d="M 107.59598834532513 119.57807347666477 l 16.663741808780713 42.949507910878125 a67.06886715403678,67.06886715403678 0 0,0 -1.0799038687929958,0.4083272394766433 l -15.921967719227444 -43.2299834004614" fill="#3fff2d" stroke="none" /><path d="M 106.2309692047433 120.05430185196036 l 11.334049905165871 36.47850768229609 a59.198720004472996,59.198720004472996 0 0,0 -0.9757218321263308,0.29397698405142697 l -10.704453098599295 -36.668200035453246" fill="#bdff1f" stroke="none" /><path d="M 105.88484417918355 120.15858648285463 l 8.889187025494838 30.44998983143303 a52.72096352112591,52.72096352112591 0 0,0 -0.8733323807854172,0.2468124542913242 l -8.363723476604815 -30.59849107906287" fill="#ffcb12" stroke="none" /><path d="M 103.7750983002368 120.6578951692458 l 6.000889045323467 32.83775069189361 a54.381559877232256,54.381559877232256 0 0,0 -0.9222880230109795,0.1603515947544399 l -5.434752050840437 -32.93618086516906" fill="#ffea16" stroke="none" /><path d="M 101.98527174616119 120.90594882070398 l 3.813457536859495 40.157700450666376 a61.338360946757376,61.338360946757376 0 0,0 -1.051969487399761,0.09076835382960556 l -3.121643731718193 -40.21739305677465" fill="#99ff23" stroke="none" /><path d="M 101.26447882468166 120.96189622390904 l 2.6930917392285623 44.64472512885923 a65.72587869396526,65.72587869396526 0 0,0 -1.1298964963109392,0.058402742721593764 l -1.9242071745041436 -44.68446767834302" fill="#53ff2b" stroke="none" /><line stroke="#e1ed5e" stroke-width="0.3" x1="102.19456741930631" x2="102.32365962044197" y1="184.97166512339345" y2="189.96999836594603" /><path d="M 102.22038585953345 185.97133177190398 a86.0,86.0 0 0,1 -42.740103519485714,-10.115201625700543" fill="none" id="id19" stroke="none" /><text fill="#e1ed5e" style="font-size:6.75px; font-family:Arial;" text-anchor="middle"><textPath startOffset="22.20632615414155" xlink:href="#id19">July</textPath></text><path d="M 100.18074693466247 120.99922214144158 l 0.3360476051007805 39.04209121326948 a60.04353742039965,60.04353742039965 0 0,0 -1.033589079526445,0.0 l 0.33604760510075365 -39.04209121326948" fill="#afff20" stroke="none" /><path d="M 99.45781275523022 120.99299961872073 l -1.1389329099706398 44.098451919344726 a65.11315710597205,65.11315710597205 0 0,0 -1.1201932619333,-0.038581720903954 l 1.8978465235785829 -44.07231340001467" fill="#5dff2a" stroke="none" /><path d="M 96.22490169976321 120.6578951692458 l -6.384252436330891 34.93557175860906 a56.51412188512789,56.51412188512789 0 0,0 -0.9554449287268062,-0.1831132945685835 l 6.984664979629391 -34.82050126569201" fill="#edff1a" stroke="none" /><path d="M 95.16358092515715 120.4354850818985 l -10.187455243825173 43.045399175724356 a65.23449597929643,65.23449597929643 0 0,0 -1.0904931207125832,-0.26801667750534136 l 10.926901649280968 -42.86366123990498" fill="#5bff2a" stroke="none" /><path d="M 94.46302465271185 120.25689768951611 l -10.95750911459446 40.08779652143337 a62.558373836571924,62.558373836571924 0 0,0 -1.0362908777049122,-0.2928661532692029 l 11.645931160403986 -39.893241574825645" fill="#85ff25" stroke="none" /><path d="M 94.11515582081647 120.15858648285463 l -7.72316304351175 26.45576422983872 a48.560020108510074,48.560020108510074 0 0,0 -0.8003732476781059,-0.2411458939635484 l 8.177411265630102 -26.318902966769446" fill="#ff790b" stroke="none" /><path d="M 92.06813273071674 119.44442032107085 l -13.361122338163517 32.75386108774062 a56.37421386109352,56.37421386109352 0 0,0 -0.8953528224318311,-0.3742575523917707 l 13.92294662009281 -32.519018492328875" fill="#efff19" stroke="none" /><path d="M 91.7346041902142 119.30500536409082 l -17.34611757595204 40.5143202523271 a65.07150939628542,65.07150939628542 0 0,0 -1.0258967347583092,-0.44972298019210166 l 18.040934985368093 -40.20973271884055" fill="#5eff2a" stroke="none" /><path d="M 90.42595943632237 118.69057910512821 l -15.797829373692439 30.840748755392337 a55.65145302456354,55.65145302456354 0 0,0 -0.848841271018432,-0.44407363428080526 l 16.326361547237365 -30.564245702166815" fill="#fcff18" stroke="none" /><path d="M 90.10565033884886 118.52300852407294 l -15.042591298630432 28.16092582038987 a52.92674891120505,52.92674891120505 0 0,0 -0.7998925117320357,-0.4361651748117938 l 15.525106622231108 -27.897819993818313" fill="#ffcf13" stroke="none" /><line stroke="#e1ed5e" stroke-width="0.3" x1="58.666819895761336" x2="56.23545636021788" y1="174.27360380694188" y2="178.64263932499728" /><path d="M 58.180547188652646 175.14741091055294 a86.0,86.0 0 0,1 -31.652253787137756,-30.449443065178592" fill="none" id="id20" stroke="none" /><text fill="#e1ed5e" style="font-size:6.75px; font-family:Arial;" text-anchor="middle"><textPath startOffset="22.20632615414155" xlink:href="#id20">August</textPath></text><path d="M 89.1626897886671 117.98757091392108 l -32.511930633998716 53.962712741763234 a84.0,84.0 0 0,0 -1.2320832002707651,-0.7568461326864875 l 33.435993034201786 -53.395078142248366" fill="#4dd2ff" stroke="none" /><path d="M 87.65650970185807 116.9893568818739 l -21.109459208760647 29.054678005861888 a56.91355707961332,56.91355707961332 0 0,0 -0.7876159559179311,-0.5826594549499181 l 21.60646013509714 -28.687008602172202" fill="#e5ff1a" stroke="none" /><path d="M 87.07902340077011 116.55440617244103 l -20.923930459691544 26.80782221788791 a55.00691397271873,55.00691397271873 0 0,0 -0.741394992796138,-0.5890090213191309 l 21.382282945205038 -26.443679282563647" fill="#fff617" stroke="none" /><line stroke="#e1ed5e" stroke-width="0.3" x1="26.63291911575756" x2="22.317208475507996" y1="142.92168965132927" y2="145.44649492493687" /><path d="M 25.769776987707644 143.4266507060508 a86.0,86.0 0 0,1 -11.730757126820373,-40.83630448921669" fill="none" id="id21" stroke="none" /><text fill="#e1ed5e" style="font-size:6.75px; font-family:Arial;" text-anchor="middle"><textPath startOffset="21.46611528233685" xlink:href="#id21">September</textPath></text><line stroke="#e1ed5e" stroke-width="0.3" x1="15.007084014347285" x2="10.007500721073583" y1="101.09737516637583" y2="101.16192664675087" /><path d="M 14.007167355692545 101.11028546245083 a86.0,86.0 0 0,1 10.666146001902534,-42.60595125391555" fill="none" id="id22" stroke="none" /><text fill="#e1ed5e" style="font-size:6.75px; font-family:Arial;" text-anchor="middle"><textPath startOffset="22.20632615414155" xlink:href="#id22">October</textPath></text><line stroke="#e1ed5e" stroke-width="0.3" x1="26.266209847984243" x2="21.928928074336255" y1="57.711370442889674" y2="55.22380399835377" /><path d="M 25.398753493254645 57.213857153982495 a86.0,86.0 0 0,1 29.58750427330803,-30.492523968695096" fill="none" id="id23" stroke="none" /><text fill="#e1ed5e" style="font-size:6.75px; font-family:Arial;" text-anchor="middle"><textPath startOffset="21.46611528233685" xlink:href="#id23">November</textPath></text><line stroke="#e1ed5e" stroke-width="0.3" x1="56.762969772571076" x2="54.21961505331055" y1="26.818313649435495" y2="22.513508569990535" /><path d="M 56.25429882871897 25.957352633546506 a86.0,86.0 0 0,1 42.265352541879196,-11.944610805530505" fill="none" id="id24" stroke="none" /><text fill="#e1ed5e" style="font-size:6.75px; font-family:Arial;" text-anchor="middle"><textPath startOffset="22.20632615414155" xlink:href="#id24">December</textPath></text></svg>