<?xml version="1.0" encoding="utf-8" ?>
<svg baseProfile="full" height="200mm" version="1.1" viewBox="0,0,200,200" width="200mm" xmlns="http://www.w3.org/2000/svg" xmlns:ev="http://www.w3.org/2001/xml-events" xmlns:xlink="http://www.w3.org/1999/xlink"><defs /><rect fill="#1a1a1a" height="200" width="200" x="0" y="0" /><text alignment-baseline="middle" fill="#e1ed5e" style="dominant-baseline: central; font-size:9.0px; font-family:Arial;" text-anchor="middle" x="100.0" y="100.0">2023</text><line stroke="#e1ed5e" stroke-width="0.3" x1="100.0" x2="100.0" y1="15.0" y2="10.0" /><path d="M 100.0 14.0 a86.0,86.0 0 0,1 42.46469731375804,11.215312516191453" fill="none" id="id13" stroke="none" /><text fill="#e1ed5e" style="font-size:6.75px; font-family:Arial;" text-anchor="middle"><textPath startOffset="22.20632615414155" xlink:href="#id13">January</textPath></text><path d="M 103.59715602781102 79.31037775812273 l 4.425608163466434 -25.454598128290847 a46.83645822262271,46.83645822262271 0 0,0 0.7931082406773711,0.14493546156349435 l -4.863111525246706 25.374647185376613" fill="#ff5b08" stroke="none" /><line stroke="#e1ed5e" stroke-width="0.3" x1="143.23703022742887" x2="145.7803849466894" y1="26.81831364943548" y2="22.513508569990506" /><path d="M 143.74570117128098 25.957352633546492 a86.0,86.0 0 0,1 28.547481713284135,27.462654790039103" fill="none" id="id14" stroke="none" /><text fill="#e1ed5e" style="font-size:6.75px; font-family:Arial;" text-anchor="middle"><textPath startOffset="19.985693538727396" xlink:href="#id14">February</textPath></text><path d="M 113.6212207817346 84.01681056812373 l 16.43023647646911 -19.27929854613861 a46.330693300891674,46.330693300891674 0 0,0 0.6025333168318255,0.5225109548946606 l -16.7596635919477 18.993622597824277" fill="#ff5107" stroke="none" /><path d="M 114.94478906791727 85.2469230424477 l 20.174108128340336 -19.915314188430003 a49.34809302224488,49.34809302224488 0 0,0 0.5915561205620135,0.6096505814901853 l -20.51392851260546 19.565099411389703" fill="#ff8e0d" stroke="none" /><path d="M 116.82858285166822 87.43820079747576 l 22.25211058577546 -16.61022484630464 a48.76789504025064,48.76789504025064 0 0,0 0.4963582132910881,0.6770320451104646 l -22.534731411580175 16.22473035752268" fill="#ff820c" stroke="none" /><path d="M 117.04232023915458 87.72973835380427 l 24.358918924055708 -17.53812300334167 a51.01570738178698,51.01570738178698 0 0,0 0.5069683010646113,0.7170707088538684 l -24.6571998449242 17.11622579415601" fill="#ffaf10" stroke="none" /><path d="M 117.2510076193507 88.02491185347247 l 20.893602756518032 -14.503659161751115 a46.43420463131145,46.43420463131145 0 0,0 0.45013657233650495,0.6605198759681812 l -21.14016379452327 14.141861262512526" fill="#ff5307" stroke="none" /><path d="M 117.65298651832404 88.62581576622439 l 28.210869227727134 -18.176846374297416 a54.55966159988403,54.55966159988403 0 0,0 0.5018771894884203,0.7938491877029268 l -28.519574013461508 17.688549538880284" fill="#fff216" stroke="none" /><line stroke="#e1ed5e" stroke-width="0.3" x1="172.23445277983987" x2="176.4835382374775" y1="55.19839476539836" y2="52.563006222186495" /><path d="M 173.08426987136738 54.67131705675599 a86.0,86.0 0 0,1 12.851231095245387,41.99856678651699" fill="none" id="id15" stroke="none" /><text fill="#e1ed5e" style="font-size:6.75px; font-family:Arial;" text-anchor="middle"><textPath startOffset="22.20632615414155" xlink:href="#id15">March</textPath></text><path d="M 118.21658344932153 89.55222093294921 l 20.63735529832156 -11.83616726401702 a44.79065550191817,44.79065550191817 0 0,0 0.3778248744603737,0.672108292832584 l -20.838037814074365 11.479175461249643" fill="#ff3004" stroke="none" /><path d="M 120.73433829027371 96.67025291283417 l 21.54221471296376 -3.4594847295049638 a42.81822745626029,42.81822745626029 0 0,0 0.11060173775607993,0.7287272618411974 l -21.598572344159138 3.088158355271684" fill="#ff0601" stroke="none" /><path d="M 120.87857604477298 97.74499172005257 l 23.779952727977403 -2.5683739247041433 a44.91825027801867,44.91825027801867 0 0,0 0.07640995282170751,0.7694377972831253 l -23.82063980648134 2.1586605967165826" fill="#ff3304" stroke="none" /><path d="M 120.94382443527127 98.46500227214037 l 25.734096616951348 -1.8860824563166259 a46.80312065860663,46.80312065860663 0 0,0 0.05197243394798751,0.8039905496316121 l -25.762749641903753 1.4428328424319785" fill="#ff5b08" stroke="none" /><path d="M 120.98425023603335 99.18683210126433 l 25.852593646291446 -1.0018227487643505 a46.87199735351352,46.87199735351352 0 0,0 0.024302696602821486,0.8064881854114702 l -25.866008037349914 0.5566644159278812" fill="#ff5c08" stroke="none" /><line stroke="#e1ed5e" stroke-width="0.3" x1="184.98032266829074" x2="189.97916517819016" y1="98.17113171792111" y2="98.06355123074" /><path d="M 185.9800911702706 98.14961562048488 a86.0,86.0 0 0,1 -9.607161424134198,41.387399972396054" fill="none" id="id16" stroke="none" /><text fill="#e1ed5e" style="font-size:6.75px; font-family:Arial;" text-anchor="middle"><textPath startOffset="21.466115282336823" xlink:href="#id16">April</textPath></text><path d="M 120.9764740272857 100.99374915477107 l 26.455979524400078 1.2533377753007942 a47.4856509864204,47.4856509864204 0 0,0 -0.0457075374722262,0.8161387861535156 l -26.430485636040324 -1.7085482777897332" fill="#ff6909" stroke="none" /><path d="M 120.92983693683757 101.71520430193887 l 32.41851614199002 2.6567038490084687 a53.52719268842308,53.52719268842308 0 0,0 -0.08315934626736114,0.9176564565037707 l -32.367982199445585 -3.21434169406081" fill="#ffdf14" stroke="none" /><path d="M 120.8583938346157 102.4346265915055 l 31.622673828845954 3.6910513440610826 a52.83735793231081,52.83735793231081 0 0,0 -0.11321911249228876,0.9024677238419985 l -31.554453207106818 -4.234836822190476" fill="#ffd213" stroke="none" /><path d="M 120.70491114924044 103.5080841355445 l 31.522519586696045 5.3409381995119505 a52.971782276636404,52.971782276636404 0 0,0 -0.16005943052792806,0.8976982882141584 l -31.425913713828926 -5.882755238459327" fill="#ffd413" stroke="none" /><path d="M 120.32669344350535 105.2749913415812 l 25.2021254558962 6.540217371742388 a47.03692706070308,47.03692706070308 0 0,0 -0.21012498145409858,0.7819532244024693 l -25.085812398100327 -6.973061529320406" fill="#ff5f08" stroke="none" /><path d="M 119.9155931802556 106.66101706037122 l 30.79650440417586 10.300272724961342 a53.47337835404573,53.47337835404573 0 0,0 -0.29947426642274033,0.8704123990212651 l -30.614639306809888 -10.828857827071909" fill="#ffde14" stroke="none" /><path d="M 119.26925614724726 108.34839909993367 l 29.872833728764427 12.942395716158046 a53.55597951006899,53.55597951006899 0 0,0 -0.3737669649118993,0.8427458342793253 l -29.645625679121256 -13.45468988693006" fill="#ffdf14" stroke="none" /><path d="M 118.97047184881838 109.00673069616215 l 29.595070692117204 14.051038570998116 a53.761255992331726,53.761255992331726 0 0,0 -0.4040971037472495,0.8325597233278235 l -29.348820331755242 -14.558387250291215" fill="#ffe315" stroke="none" /><path d="M 118.81262510543309 109.33194174019688 l 26.638215490840114 13.213800499938637 a50.73548466375843,50.73548466375843 0 0,0 -0.3948219234661785,0.7790211117643547 l -26.406814897587665 -13.670375823405687" fill="#ffa90f" stroke="none" /><line stroke="#e1ed5e" stroke-width="0.3" x1="174.80103733775053" x2="179.2010983576182" y1="140.37084112569926" y2="142.7455964860345" /><path d="M 175.68104954172406 140.8457921977663 a86.0,86.0 0 0,1 -30.038265399797805,32.042727171017184" fill="none" id="id17" stroke="none" /><text fill="#e1ed5e" style="font-size:6.75px; font-family:Arial;" text-anchor="middle"><textPath startOffset="22.206326154141568" xlink:href="#id17">May</textPath></text><path d="M 118.30583269289576 110.29060199501025 l 38.41694255611621 21.59603839619854 a65.07096946709947,65.07096946709947 0 0,0 -0.557280188908919,0.9716649826496154 l -38.03951037105491 -22.254123224706472" fill="#5bff2a" stroke="none" /><path d="M 117.14729908036423 112.12312394758627 l 28.98930892798677 20.495413513332604 a56.50270422382991,56.50270422382991 0 0,0 -0.5683101389284408,0.7893330771621963 l -28.632218996682724 -20.99138019594593" fill="#e9ff1a" stroke="none" /><path d="M 116.93607887273984 112.41649034213515 l 26.043062189232344 19.093169828862283 a53.29226257644392,53.29226257644392 0 0,0 -0.548754826403942,0.7351467662001683 l -25.71054609613331 -19.538629474571767" fill="#ffda14" stroke="none" /><path d="M 116.27256486870786 113.27417163493432 l 26.849932562647087 21.902546777267244 a55.650258786177574,55.650258786177574 0 0,0 -0.6118984457470421,0.7370710961943229 l -26.468938117006502 -22.361479130575336" fill="#f8ff18" stroke="none" /><path d="M 114.55890576462653 115.13401014063108 l 22.698524041738818 23.59515876939572 a53.740716409791446,53.740716409791446 0 0,0 -0.6721790683341954,0.635587264412013 l -22.289009139013814 -23.982380670553656" fill="#ffe315" stroke="none" /><path d="M 114.29624159901734 115.38237550388516 l 23.246976437952405 25.01312799044568 a55.14789137520985,55.14789137520985 0 0,0 -0.7009046216188551,0.6402597535606456 l -22.812972266866687 -25.409580510592907" fill="#fffc17" stroke="none" /><path d="M 113.48314897796784 116.09983520530334 l 21.763349965418325 25.986981863890147 a54.89641025405831,54.89641025405831 0 0,0 -0.7296775208368189,0.6004749234560018 l -21.312802316036816 -26.357751906203326" fill="#fff817" stroke="none" /><path d="M 111.7513745106137 117.40417183066458 l 16.052988785479997 23.775003933870416 a49.68709223679354,49.68709223679354 0 0,0 -0.7129513350946192,0.47250526885266 l -15.641362751645413 -24.04780722381439" fill="#ff950d" stroke="none" /><path d="M 111.1453310114006 117.79835938074945 l 19.046813517607376 30.41650640054802 a56.8879501614273,56.8879501614273 0 0,0 -0.8344129487111326,0.5125645842397368 l -18.520421368963934 -30.739859451616134" fill="#e2ff1b" stroke="none" /><line stroke="#e1ed5e" stroke-width="0.3" x1="143.8653032363475" x2="146.44561519142675" y1="172.8068346515853" y2="177.08958963109032" /><path d="M 144.38136562736335 173.6633856474863 a86.0,86.0 0 0,1 -40.68145358897372,12.25698825130547" fill="none" id="id18" stroke="none" /><text fill="#e1ed5e" style="font-size:6.75px; font-family:Arial;" text-anchor="middle"><textPath startOffset="21.466115282336833" xlink:href="#id18">June</textPath></text><path d="M 110.5260780823613 118.17145234162733 l 19.023775896958913 32.841257148630206 a58.95328998229494,58.95328998229494 0 0,0 -0.8824780666660256,0.5010940775157567 l -18.455649063371688 -33.16385439194059" fill="#beff1e" stroke="none" /><path d="M 109.89434966115114 118.52300852407294 l 18.17727065409509 34.02929457730641 a59.57986596479208,59.57986596479208 0 0,0 -0.9087606235607101,0.4754206075674334 l -17.588819128007884 -34.33714460381856" fill="#b4ff20" stroke="none" /><path d="M 108.92500713936063 119.00905698771935 l 16.31008917874302 34.73828197920315 a59.376649722001275,59.376649722001275 0 0,0 -0.9289109398945227,0.42641745230107053 l -15.70971024308108 -35.01388650183829" fill="#b7ff1f" stroke="none" /><path d="M 108.2653958097858 119.30500536409082 l 15.25827411740939 35.63786544071021 a59.76689802153601,59.76689802153601 0 0,0 -0.9492364889279516,0.3967809293572425 l -14.642566168983977 -35.89523141308742" fill="#b1ff20" stroke="none" /><path d="M 107.59598834532513 119.57807347666477 l 16.6400800610547 42.88852158302899 a67.00345147938634,67.00345147938634 0 0,0 -1.0788505836678355,0.4079289771683331 l -15.89935925662659 -43.168598810303955" fill="#3eff2d" stroke="none" /><path d="M 106.2309692047433 120.05430185196036 l 11.31795607506171 36.42670987745101 a59.14447957716835,59.14447957716835 0 0,0 -0.9748278335888454,0.29370762962566443 l -10.689253267032619 -36.6161328761824" fill="#bbff1f" stroke="none" /><path d="M 105.88484417918355 120.15858648285463 l 8.876564788346649 30.406752244946215 a52.675921210396666,52.675921210396666 0 0,0 -0.8725862466892624,0.2466015893428188 l -8.351847373552781 -30.555042627627554" fill="#ffcf13" stroke="none" /><path d="M 103.7750983002368 120.6578951692458 l 5.9923680585996175 32.79112259469446 a54.33415959597611,54.33415959597611 0 0,0 -0.9214841344908895,0.16021182843092158 l -5.427034952636679 -32.88941300164638" fill="#ffee16" stroke="none" /><path d="M 101.98527174616119 120.90594882070398 l 3.8080426023726024 40.100678361136644 a61.281082327623935,61.281082327623935 0 0,0 -1.0509871435829596,0.09068359307160473 l -3.1172111410481014 -40.160286206486916" fill="#97ff23" stroke="none" /><path d="M 101.26447882468166 120.96189622390904 l 2.6892676726972944 44.58133167045003 a65.66237000122234,65.66237000122234 0 0,0 -1.12880471555667,0.05834631012736221 l -1.921474888727145 -44.621017787339596" fill="#52ff2b" stroke="none" /><line stroke="#e1ed5e" stroke-width="0.3" x1="102.19456741930631" x2="102.32365962044197" y1="184.97166512339345" y2="189.96999836594603" /><path d="M 102.22038585953345 185.97133177190398 a86.0,86.0 0 0,1 -42.740103519485714,-10.115201625700543" fill="none" id="id19" stroke="none" /><text fill="#e1ed5e" style="font-size:6.75px; font-family:Arial;" text-anchor="middle"><textPath startOffset="22.20632615414155" xlink:href="#id19">July</textPath></text><path d="M 100.18074693466247 120.99922214144158 l 0.33557043294178585 38.98665323759839 a59.98809739118089,59.98809739118089 0 0,0 -1.0326347352084557,0.0 l 0.335570432941759 -38.98665323759839" fill="#adff20" stroke="none" /><path d="M 99.45781275523022 120.99299961872073 l -1.1373156775685882 44.03583414379364 a65.05051844973161,65.05051844973161 0 0,0 -1.1191156394714847,-0.0385446054074817 l 1.895151668714716 -44.009732739960064" fill="#5cff2a" stroke="none" /><path d="M 96.22490169976321 120.6578951692458 l -6.375187091206059 34.88596485188294 a56.46369346380453,56.46369346380453 0 0,0 -0.9545923705022435,-0.18294989975574039 l 6.974747076279998 -34.77105775377873" fill="#eaff1a" stroke="none" /><path d="M 95.16358092515715 120.4354850818985 l -10.17298952545798 42.984276686685014 a65.17168502743098,65.17168502743098 0 0,0 -1.089443140791892,-0.26775861798671996 l 10.911385950993083 -42.802796810384265" fill="#5aff2a" stroke="none" /><path d="M 94.46302465271185 120.25689768951611 l -10.941949955112138 40.0308736922713 a62.499362855190405,62.499362855190405 0 0,0 -1.0353133500305223,-0.29258989418416026 l 11.629394473247274 -39.836595004748624" fill="#84ff25" stroke="none" /><path d="M 94.11515582081647 120.15858648285463 l -7.712196506843129 26.418198260185047 a48.5208861462455,48.5208861462455 0 0,0 -0.7997282360738641,-0.24095155725830122 l 8.165799717357238 -26.281531333821018" fill="#ff7e0b" stroke="none" /><path d="M 92.06813273071674 119.44442032107085 l -13.342150158341608 32.707352109924926 a56.323984102736,56.323984102736 0 0,0 -0.894555057765413,-0.3739240866965073 l 13.903176675604485 -32.47284298020845" fill="#ecff1a" stroke="none" /><path d="M 91.7346041902142 119.30500536409082 l -17.321486885989493 40.45679177906448 a65.00892987787917,65.00892987787917 0 0,0 -1.0249101259614433,-0.4492904798893155 l 18.015317686608682 -40.15263674588071" fill="#5cff2a" stroke="none" /><path d="M 90.42595943632237 118.69057910512821 l -15.775397181838507 30.796956309187546 a55.60224955338547,55.60224955338547 0 0,0 -0.8480907796162601,-0.4436810126496031 l 16.303178863981262 -30.520845877593228" fill="#f9ff18" stroke="none" /><path d="M 90.10565033884886 118.52300852407294 l -15.02123151014246 28.120938599624008 a52.88141439467704,52.88141439467704 0 0,0 -0.7992073621424663,-0.4357915766268831 l 15.503061684153566 -27.858206371237358" fill="#ffd213" stroke="none" /><line stroke="#e1ed5e" stroke-width="0.3" x1="58.666819895761336" x2="56.23545636021788" y1="174.27360380694188" y2="178.64263932499728" /><path d="M 58.180547188652646 175.14741091055294 a86.0,86.0 0 0,1 -31.652253787137756,-30.449443065178592" fill="none" id="id20" stroke="none" /><text fill="#e1ed5e" style="font-size:6.75px; font-family:Arial;" text-anchor="middle"><textPath startOffset="22.20632615414155" xlink:href="#id20">August</textPath></text><path d="M 89.1626897886671 117.98757091392108 l -32.465765186311444 53.886088169073666 a83.91054289463645,83.91054289463645 0 0,0 -1.2307710741200117,-0.7560401176360622 l 33.38851546036376 -53.31925958460922" fill="#4dd3ff" stroke="none" /><path d="M 87.65650970185807 116.9893568818739 l -21.079484746592303 29.013421698057535 a56.862561478666485,56.862561478666485 0 0,0 -0.7869102374380412,-0.5821373812898416 l 21.57577995444891 -28.646274368027928" fill="#e3ff1b" stroke="none" /><path d="M 87.07902340077011 116.55440617244103 l -20.89421943982246 26.769756342067073 a54.958625717379896,54.958625717379896 0 0,0 -0.7407441533264519,-0.5884919550821041 l 21.351921085866273 -26.40613047297984" fill="#fff917" stroke="none" /><path d="M 86.51685102203217 116.09983520530335 l -40.44944693390351 48.29950561591003 a84.0,84.0 0 0,0 -1.1005380936917737,-0.937902439108194 l 41.274850504172335 -47.596078786578886" fill="#4dd2ff" stroke="none" /><path d="M 85.44109423537348 115.13401014063109 l -23.039214474626768 23.949307120205862 a54.232133773590206,54.232133773590206 0 0,0 -0.6671844925318727,-0.6529804496638912 l 23.448048919534433 -23.5491765676194" fill="#ffec16" stroke="none" /><path d="M 84.19399662182784 113.82643327865904 l -25.511624244874046 22.31650607762694 a54.89497625201123,54.89497625201123 0 0,0 -0.6160196352724125,-0.7165700062695345 l 25.891986389717236 -21.874058972195876" fill="#fff817" stroke="none" /><path d="M 83.06392112726016 112.41649034213515 l -26.15105430236783 19.17234299756616 a53.42616809217079,53.42616809217079 0 0,0 -0.537366015095429,-0.7463543956076947 l 26.477200109838865 -18.71935499650733" fill="#ffdd14" stroke="none" /><path d="M 82.44556493220864 111.52570212397912 l -26.693489272821036 17.526124014817185 a52.93285756929629,52.93285756929629 0 0,0 -0.4935236228392262,-0.7659596223687434 l 26.99121775903731 -17.06404279252699" fill="#ffd313" stroke="none" /><path d="M 82.05923443525364 110.91462005526583 l -27.706350768423057 16.85570722519696 a53.430799234130106,53.430799234130106 0 0,0 -0.47125742118519814,-0.7898545445826156 l 27.992389065306487 -16.37629058672823" fill="#ffdd14" stroke="none" /><line stroke="#e1ed5e" stroke-width="0.3" x1="26.63291911575756" x2="22.317208475507996" y1="142.92168965132927" y2="145.44649492493687" /><path d="M 25.769776987707644 143.4266507060508 a86.0,86.0 0 0,1 -11.730757126820373,-40.83630448921669" fill="none" id="id21" stroke="none" /><text fill="#e1ed5e" style="font-size:6.75px; font-family:Arial;" text-anchor="middle"><textPath startOffset="21.46611528233685" xlink:href="#id21">September</textPath></text><path d="M 80.20201598880116 107.00284435728193 l -32.58422773057426 11.525530840431472 a55.562548487512636,55.562548487512636 0 0,0 -0.31117453134728285,-0.9044188456645867 l 32.777793092864776 -10.962939291677587" fill="#faff18" stroke="none" /><path d="M 79.97269907076064 106.31721596034903 l -30.79593011009646 9.713967043919755 a53.291647017089495,53.291647017089495 0 0,0 -0.2684204525457908,-0.8772135696230932 l 30.958577335148384 -9.182426501744613" fill="#ffda14" stroke="none" /><path d="M 79.50377843672027 104.57218783832718 l -21.025938609110465 4.690354292920983 a42.542737007799275,42.542737007799275 0 0,0 -0.1532874805232591,-0.7161080769747422 l 21.103560128358165 -4.327732396530077" fill="#ff0000" stroke="none" /><line stroke="#e1ed5e" stroke-width="0.3" x1="15.007084014347285" x2="10.007500721073583" y1="101.09737516637583" y2="101.16192664675087" /><path d="M 14.007167355692545 101.11028546245083 a86.0,86.0 0 0,1 10.666146001902534,-42.60595125391555" fill="none" id="id22" stroke="none" /><text fill="#e1ed5e" style="font-size:6.75px; font-family:Arial;" text-anchor="middle"><textPath startOffset="22.20632615414155" xlink:href="#id22">October</textPath></text><path d="M 79.54389044137918 95.25157060432595 l -24.7424430562621 -5.743406075943374 a46.40029924519701,46.40029924519701 0 0,0 0.1872963540035991,-0.7764643052469321 l 24.639913901997687 6.168455612849702" fill="#ff5207" stroke="none" /><line stroke="#e1ed5e" stroke-width="0.3" x1="26.266209847984243" x2="21.928928074336255" y1="57.711370442889674" y2="55.22380399835377" /><path d="M 25.398753493254645 57.213857153982495 a86.0,86.0 0 0,1 29.58750427330803,-30.492523968695096" fill="none" id="id23" stroke="none" /><text fill="#e1ed5e" style="font-size:6.75px; font-family:Arial;" text-anchor="middle"><textPath startOffset="21.46611528233685" xlink:href="#id23">November</textPath></text><path d="M 82.95767976084542 87.72973835380427 l -23.465674277110637 -16.894997808047044 a49.91502758451678,49.91502758451678 0 0,0 0.5080336948678352,-0.6929573888599837 l 23.171377969729168 17.29641764057853" fill="#ff990e" stroke="none" /><path d="M 84.5562425177563 85.77008943001954 l -23.520861513817405 -21.672171183426993 a52.98302565668139,52.98302565668139 0 0,0 0.6237683487242563,-0.6653925834286578 l 23.144325843122694 22.0738331837337" fill="#ffd413" stroke="none" /><line stroke="#e1ed5e" stroke-width="0.3" x1="56.762969772571076" x2="54.21961505331055" y1="26.818313649435495" y2="22.513508569990535" /><path d="M 56.25429882871897 25.957352633546506 a86.0,86.0 0 0,1 42.265352541879196,-11.944610805530505" fill="none" id="id24" stroke="none" /><text fill="#e1ed5e" style="font-size:6.75px; font-family:Arial;" text-anchor="middle"><textPath startOffset="22.20632615414155" xlink:href="#id24">December</textPath></text></svg>